<svg xmlns="http://www.w3.org/2000/svg" width="192" height="192" viewBox="0 0 192 192" role="img" aria-label="RecallDev icon">
  <rect width="192" height="192" rx="44" fill="#2563eb"/>
  <path
    d="M64 136V56h40c10.8 0 19.6 2.8 26.4 8.4 6.8 5.6 10.2 13.2 10.2 22.8 0 6.4-1.7 12.1-5.2 17.1-3.5 5-8.4 8.4-14.9 10.2L142 136h-22.6l-18.6-18.8H86.6V136H64zm22.6-40.6h16.6c4.8 0 8.7-1.1 11.6-3.4 2.9-2.3 4.4-5.5 4.4-9.6 0-4.1-1.5-7.3-4.4-9.6-2.9-2.3-6.8-3.4-11.6-3.4H86.6v26z"
    fill="#ffffff"
  />
</svg>


