<svg xmlns="http://www.w3.org/2000/svg" width="512" height="512" viewBox="0 0 512 512" role="img" aria-label="RecallDev icon">
  <rect width="512" height="512" rx="120" fill="#2563eb"/>
  <path
    d="M170 363V149h107c29 0 52.7 7.5 71.2 22.5 18.5 15 27.8 35.4 27.8 61.2 0 17.2-4.7 32.6-14.1 46.1-9.4 13.5-22.7 22.7-40 27.6L379 363h-60.9l-49.9-50.4h-51.2V363H170zm60.9-108.8h44.5c12.9 0 23.3-3 31.2-9.1 7.9-6.1 11.8-14.8 11.8-25.8 0-11-3.9-19.7-11.8-25.8-7.9-6.1-18.3-9.1-31.2-9.1h-44.5v69.8z"
    fill="#ffffff"
  />
</svg>



